<?xml version="1.0" encoding="utf-8"?>
<!-- Generator: Adobe Illustrator 24.0.1, SVG Export Plug-In . SVG Version: 6.00 Build 0)  -->
<svg version="1.1" id="Capa_1" xmlns="http://www.w3.org/2000/svg" xmlns:xlink="http://www.w3.org/1999/xlink" x="0px" y="0px"
	 viewBox="0 0 488.2 488.2" style="enable-background:new 0 0 488.2 488.2;" xml:space="preserve">
<style type="text/css">
	.st0{fill:#DFDFEB;}
</style>
<g>
	<g>
		<path class="st0" d="M177.9,269.3c0-6.1-5-11.1-11.1-11.1h-38.7c-6.1,0-11.1,5-11.1,11.1V308c0,6.1,5,11.1,11.1,11.1h38.7
			c6.1,0,11.1-5,11.1-11.1L177.9,269.3L177.9,269.3z"/>
		<path class="st0" d="M274.5,269.3c0-6.1-5-11.1-11.1-11.1h-38.7c-6.1,0-11.1,5-11.1,11.1V308c0,6.1,5,11.1,11.1,11.1h38.7
			c6.1,0,11.1-5,11.1-11.1V269.3z"/>
		<path class="st0" d="M371.1,269.3c0-6.1-5-11.1-11.1-11.1h-38.7c-6.1,0-11.1,5-11.1,11.1V308c0,6.1,5,11.1,11.1,11.1H360
			c6.1,0,11.1-5,11.1-11.1V269.3z"/>
		<path class="st0" d="M177.9,366c0-6.1-5-11.1-11.1-11.1h-38.7c-6.1,0-11.1,5-11.1,11.1v38.7c0,6.1,5,11.1,11.1,11.1h38.7
			c6.1,0,11.1-5,11.1-11.1L177.9,366L177.9,366z"/>
		<path class="st0" d="M274.5,366c0-6.1-5-11.1-11.1-11.1h-38.7c-6.1,0-11.1,5-11.1,11.1v38.7c0,6.1,5,11.1,11.1,11.1h38.7
			c6.1,0,11.1-5,11.1-11.1V366z"/>
		<path class="st0" d="M371.1,366c0-6.1-5-11.1-11.1-11.1h-38.7c-6.1,0-11.1,5-11.1,11.1v38.7c0,6.1,5,11.1,11.1,11.1H360
			c6.1,0,11.1-5,11.1-11.1L371.1,366L371.1,366z"/>
		<path class="st0" d="M440.3,54.4v59c0,26.7-21.7,48.2-48.3,48.2h-30.5c-26.7,0-48.6-21.5-48.6-48.2V54.1H175.4v59.3
			c0,26.7-21.9,48.2-48.6,48.2H96.2c-26.7,0-48.3-21.5-48.3-48.2v-59c-23.3,0.7-42.5,20-42.5,43.7v346.1c0,24.2,19.6,44,43.8,44H439
			c24.1,0,43.8-19.9,43.8-44V98.1C482.7,74.4,463.6,55.1,440.3,54.4z M426.1,422.6c0,10.4-8.5,18.9-18.9,18.9h-327
			c-10.4,0-18.9-8.5-18.9-18.9V243.8c0-10.4,8.5-18.9,18.9-18.9h327c10.4,0,18.9,8.5,18.9,18.9L426.1,422.6L426.1,422.6z"/>
		<path class="st0" d="M96.1,129.9h30.2c9.2,0,16.6-7.4,16.6-16.6V16.6c0-9.2-7.4-16.6-16.6-16.6H96.1C87,0,79.6,7.4,79.6,16.6v96.8
			C79.6,122.5,87,129.9,96.1,129.9z"/>
		<path class="st0" d="M361,129.9h30.2c9.1,0,16.6-7.4,16.6-16.6V16.6c0-9.2-7.4-16.6-16.6-16.6H361c-9.2,0-16.6,7.4-16.6,16.6v96.8
			C344.5,122.5,351.9,129.9,361,129.9z"/>
	</g>
</g>
</svg>
