<svg xmlns="http://www.w3.org/2000/svg" viewBox="0 0 286.68 258.05"><defs><style>.cls-1{fill:#405dbd;}</style></defs><title>Comment-Light</title><g id="Layer_2" data-name="Layer 2"><g id="Layer_1-2" data-name="Layer 1"><path class="cls-1" d="M133.65,258q-62,0-123.95,0c-4.2,0-7.72-.89-9.24-5.17-1.35-3.78.44-6.64,3.13-9.31,11.73-11.59,23.26-23.4,35.08-34.89a13.11,13.11,0,0,0,4.44-10.92c-.38-8.32-.2-16.66-.08-25,.23-17.22,12-29.39,29.24-29.44q92.46-.24,184.92,0c17.29,0,29.12,12.14,29.27,29.4q.24,28,0,56c-.15,17.4-12.3,29.26-29.86,29.28Q195.12,258.08,133.65,258Z"/><path class="cls-1" d="M139,114.76H19.57c-3.8,0-6.88-1.24-8.33-5.07-1.36-3.62,0-6.4,2.62-9,8.52-8.44,16.89-17,25.52-25.36a10.75,10.75,0,0,0,3.71-8.68c-.23-12.15-.15-24.32-.07-36.48C43.14,11.82,55,0,73.48,0q91.2,0,182.39,0c18.75,0,30.54,11.76,30.61,30.55.07,17.32-.53,34.67.17,52,.78,19.26-13,32.6-32.22,32.37C216,114.43,177.48,114.76,139,114.76Z"/></g></g></svg>