<?xml version="1.0" encoding="utf-8"?>
<!-- Generator: Adobe Illustrator 24.0.1, SVG Export Plug-In . SVG Version: 6.00 Build 0)  -->
<svg version="1.1" id="Layer_1" xmlns="http://www.w3.org/2000/svg" xmlns:xlink="http://www.w3.org/1999/xlink" x="0px" y="0px"
	 viewBox="0 0 512 512" style="enable-background:new 0 0 512 512;" xml:space="preserve">
<style type="text/css">
	.st0{fill:#405DBD;}
</style>
<g>
	<path class="st0" d="M126.5,2.9c0,10.4,0,20.9,0,31.8c-24.2,0-48,0-71.7,0C104,83.8,153,132.8,201.7,181.6
		c-8.4,8.3-15.7,15.7-23.2,23.1C130,156.2,81,107.1,31,57.1c0,25.2,0,49,0,73.5c-11.1,0-21.6,0-32.2,0c0-38.6,0-77.2,0-115.8
		c2.4-5.6,6.4-9.6,12-12C49.3,2.9,87.9,2.9,126.5,2.9z"/>
	<path class="st0" d="M497.8,2.9c9.3,4,12.2,11.2,12.1,21.1c-0.4,33.6-0.1,67.2-0.1,100.8c0,1.8,0,3.6,0,5.6c-10.7,0-20.9,0-31.8,0
		c0-23.9,0-47.8,0-72.7c-49.9,49.9-98.9,99-147.9,147.9c-7.7-7.8-15-15.1-22.3-22.3c48.8-48.8,97.9-97.9,146.9-147
		c-0.2-0.4-0.4-0.8-0.6-1.2c-23.8,0-47.6,0-72.1,0c0-11.1,0-21.6,0-32.2C420.6,2.9,459.2,2.9,497.8,2.9z"/>
	<path class="st0" d="M-1.2,386.2c10.4,0,20.9,0,31.8,0c0,24.2,0,48.1,0,71.7c49.3-49.1,98.4-98.1,147.2-146.8
		c8.2,8,15.6,15.3,23.4,22.9c-48.9,48.9-98,98-147.9,147.9c25,0,48.8,0,72.9,0c0,10.7,0,21,0,32.1c-1.6,0-3.4,0-5.1,0
		c-33.8,0-67.5-0.2-101.3,0.1C10,514.2,2.8,511.4-1.2,502C-1.2,463.4-1.2,424.8-1.2,386.2z"/>
	<path class="st0" d="M477.8,458.9c0-24.5,0-48.4,0-72.4c10.7,0,21,0,32,0c0,1.7,0,3.5,0,5.2c0,34.4,0,68.9,0,103.3
		c0,13-6,19-18.8,19c-34.6,0-69.2,0-103.8,0c-1.5,0-3,0-4.8,0c0-10.6,0-21,0-31.8c23.8,0,47.7,0,71.5,0
		c-49.3-49.3-98.3-98.3-147.1-147.1c8.3-8.3,15.7-15.7,23.6-23.6C379.1,360.2,428.2,409.2,477.8,458.9z"/>
</g>
</svg>
