<svg xmlns="http://www.w3.org/2000/svg" viewBox="0 0 286.28 271.9"><defs><style>.cls-1{fill:#fff;}</style></defs><title>like-dark</title><g id="Layer_2" data-name="Layer 2"><g id="Layer_1-2" data-name="Layer 1"><path class="cls-1" d="M128.63.08c24.93-1.55,44.74,19.28,42.78,44.56-1.35,17.28-6.25,33.65-12.13,49.8-.56,1.54-1.07,3.09-1.86,5.39h5.73q46,0,92,0c19.06,0,30.43,11.76,31.08,30.79a82.64,82.64,0,0,1-8.05,38.59c-12.91,27.75-25.09,55.84-37.36,83.89C235.25,265.85,225.93,272,212,271.9c-36.67-.19-73.33,0-110-.07-18.68,0-30.82-11.93-30.86-30.5q-.12-64.5,0-129a31.06,31.06,0,0,1,8.42-21.79q17.7-19.38,35.07-39.06a16.53,16.53,0,0,0,3.56-6.86c3.37-13.91,6.46-27.88,9.66-41.83C128,1.85,128.37.94,128.63.08Z"/><path class="cls-1" d="M42.18,271.69H0V100.14H42.18Z"/></g></g></svg>