<?xml version="1.0" encoding="utf-8"?>
<!-- Generator: Adobe Illustrator 24.0.1, SVG Export Plug-In . SVG Version: 6.00 Build 0)  -->
<svg version="1.1" id="Layer_1" xmlns="http://www.w3.org/2000/svg" xmlns:xlink="http://www.w3.org/1999/xlink" x="0px" y="0px"
	 viewBox="0 0 3500 3500" style="enable-background:new 0 0 3500 3500;" xml:space="preserve">
<style type="text/css">
	.st0{fill:#405DBD;}
</style>
<path class="st0" d="M1789.8,1623.5c-7.3,36.4,17.4,65.4,51.2,67.1c0.4,5.8,1.2,11.7,1.2,17.6c0.1,15.7-0.1,31.3-0.2,47
	c0,8.2,2.7,15.3,8.2,21.4c9.7,10.7,19.4,21.5,29.2,32.2c3.7,4,5.7,8.3,3.2,13.6c-2.4,5-6.7,6.4-12,6.4c-80.6,0-161.2,0-241.9,0
	c-5.4,0-10-1.4-12.3-6.7c-2.4-5.3-0.2-9.5,3.4-13.5c9.6-10.4,19-21,28.5-31.5c6.1-6.7,9.1-14.6,9-23.6c-0.2-15.5-0.6-30.9-0.6-46.4
	c0-44.2,28.9-80.4,72-89.9c5.4-1.2,4.7-4.3,4.8-7.9c0.3-12.6,11-20.5,22-15.9c7.1,3,10.4,8.9,9.9,16.4c-0.3,5,1.4,6.8,6.2,7.8
	C1777.8,1618.8,1783.7,1621.4,1789.8,1623.5z"/>
<path class="st0" d="M1841.6,1596.9c22.4,0.1,40.2,18,40.1,40.4c-0.1,22.2-18.4,40.3-40.6,40.1c-22.3-0.1-40.1-18.2-40-40.6
	C1801.2,1614.5,1819.1,1596.8,1841.6,1596.9z M1838.6,1660.8c1.7,0.1,2.7,0.3,3.6,0.3c6.9,0.2,6.9,0.2,6.9-6.6
	c0-11.6,0.1-23.3,0-34.9c0-2-0.4-5.7-1.1-5.8c-2.8-0.5-6.3-0.8-8.5,0.6c-5,3.1-9.4,7.2-14.4,11.2c1.9,2.3,3.5,4.2,5.2,6.3
	c2.9-2.2,5.4-4.1,8.4-6.5C1838.6,1637.6,1838.6,1648.9,1838.6,1660.8z"/>
<path class="st0" d="M1706.9,1846.7c28.5,0,56.4,0,85,0c-0.2,13.5-5.5,24.3-16,32.2c-14.5,10.9-30.3,12.3-46.4,4.1
	C1715.2,1875.7,1708,1863.5,1706.9,1846.7z"/>
</svg>
