<?xml version="1.0" encoding="utf-8"?>
<!-- Generator: Adobe Illustrator 24.0.1, SVG Export Plug-In . SVG Version: 6.00 Build 0)  -->
<svg version="1.1" id="Capa_1" xmlns="http://www.w3.org/2000/svg" xmlns:xlink="http://www.w3.org/1999/xlink" x="0px" y="0px"
	 viewBox="0 0 477.9 477.9" style="enable-background:new 0 0 477.9 477.9;" xml:space="preserve">
<style type="text/css">
	.st0{fill:#405DBD;}
</style>
<g>
	<g>
		<g>
			<path class="st0" d="M392.5,238.9c-9.4,0-17.1,7.6-17.1,17.1v170.7c0,9.4-7.6,17.1-17.1,17.1H51.2c-9.4,0-17.1-7.6-17.1-17.1
				V85.3c0-9.4,7.6-17.1,17.1-17.1H256c9.4,0,17.1-7.6,17.1-17.1s-7.6-17.1-17.1-17.1H51.2C22.9,34.1,0,57.1,0,85.3v341.3
				c0,28.3,22.9,51.2,51.2,51.2h307.2c28.3,0,51.2-22.9,51.2-51.2V256C409.6,246.6,402,238.9,392.5,238.9z"/>
		</g>
	</g>
	<g id="XMLID_1_">
		<g>
			<path class="st0" d="M103.3,353l34.1-102.4c0.8-2.5,2.3-4.8,4.1-6.7L366.3,19.1C378.6,6.8,395.2-0.1,412.5,0
				c17.3,0,33.9,6.9,46.2,19.1c25.5,25.5,25.5,66.9,0,92.4L233.9,336.3c-1.9,1.9-4.2,3.3-6.7,4.1l-102.4,34.1
				c-1.7,0.6-3.6,0.9-5.4,0.9s-3.7-0.3-5.4-0.9C105.1,371.6,100.3,362,103.3,353z"/>
		</g>
		<g>
		</g>
	</g>
</g>
</svg>
