<?xml version="1.0" encoding="utf-8"?>
<!-- Generator: Adobe Illustrator 24.0.1, SVG Export Plug-In . SVG Version: 6.00 Build 0)  -->
<svg version="1.1" id="Capa_1" xmlns="http://www.w3.org/2000/svg" xmlns:xlink="http://www.w3.org/1999/xlink" x="0px" y="0px"
	 viewBox="0 0 512 512" style="enable-background:new 0 0 512 512;" xml:space="preserve">
<style type="text/css">
	.st0{fill:#405DBD;}
</style>
<g>
	<g>
		<path class="st0" d="M256,176h-64V80c0-6.6-4.1-12.5-10.2-14.9c-6.1-2.4-13.2-0.8-17.6,4.2l-160,176c-5.5,6.1-5.5,15.4,0,21.5
			l160,176c3.1,3.4,7.4,5.2,11.8,5.2c2,0,3.9-0.4,5.8-1.1c6.2-2.4,10.2-8.3,10.2-14.9v-96h33.6c97.9,0,189.9,38.1,259.1,107.3
			c4.6,4.6,11.5,6,17.4,3.5c6-2.5,9.9-8.3,9.9-14.8C512,290.8,397.1,176,256,176z"/>
	</g>
</g>
</svg>
