<svg xmlns="http://www.w3.org/2000/svg" viewBox="0 0 23.36 22.76"><defs><style>.cls-1{fill:#fff;}</style></defs><title>verify</title><g id="Layer_2" data-name="Layer 2"><g id="Layer_1-2" data-name="Layer 1"><path class="cls-1" d="M23.36,11.38c0-1.34-1.16-2.56-3.05-3.48.72-2.18.64-4-.43-5.07S17,1.81,15,2.57C14.06,1,12.92,0,11.68,0S9.23,1,8.33,2.72c-2.1-.72-3.91-.66-4.94.37S2.31,5.87,3,7.93c-1.85.92-3,2.12-3,3.45s1.16,2.56,3.06,3.48c-.73,2.18-.65,4,.42,5.06s2.85,1,4.93.27c.89,1.6,2,2.57,3.27,2.57s2.41-1,3.31-2.65l.14-.05c2.06.69,3.83.62,4.84-.39s1.09-2.78.4-4.84C22.22,13.91,23.36,12.7,23.36,11.38ZM10.51,16,7.19,12.19l.54-.67,2.62,1.73,4.21-5.78,1.15.8Z"/></g></g></svg>