<svg xmlns="http://www.w3.org/2000/svg" viewBox="0 0 28.28 25.55"><defs><style>.cls-1{fill:#fff;}</style></defs><title>Home</title><g id="Layer_2" data-name="Layer 2"><g id="Layer_1-2" data-name="Layer 1"><path class="cls-1" d="M24.6,13.62c0,2.91.06,7.43.06,10.6-6.35,0-13.79.1-20.78.1,0-3.2-.09-7.78-.09-10.69-.28,0-.81,0-1.09,0V25.55H25.89V13.63C25.55,13.64,24.94,13.61,24.6,13.62Z"/><path class="cls-1" d="M14.33,0C11.94,2.18,2.11,10.13,0,12.06c.24.25.64.78.87,1,1.94-1.53,11.43-9.34,13.55-11l13.06,11,.8-1Z"/><rect class="cls-1" x="10.81" y="8.61" width="6.99" height="5.98"/><rect class="cls-1" x="10.81" y="15.64" width="6.99" height="5.95"/></g></g></svg>