<svg xmlns="http://www.w3.org/2000/svg" viewBox="0 0 31.12 24.23"><defs><style>.cls-1{fill:#fff;}</style></defs><title>Photos</title><g id="Layer_2" data-name="Layer 2"><g id="Layer_1-2" data-name="Layer 1"><path class="cls-1" d="M15.49,24.21c-4.12,0-8.24,0-12.36,0A2.77,2.77,0,0,1,0,21.11c0-4.8,0-9.6,0-14.4a2.81,2.81,0,0,1,3-3,6.48,6.48,0,0,1,1.08,0C5.76,3.93,7,3.62,7.35,1.63A2.18,2.18,0,0,1,9.74,0c3.84,0,7.68,0,11.52,0A2.43,2.43,0,0,1,24,2.08,1.85,1.85,0,0,0,26.33,3.7a9.93,9.93,0,0,1,2,0,2.74,2.74,0,0,1,2.72,2.79q0,7.38,0,14.76a2.74,2.74,0,0,1-3,3c-4.2,0-8.4,0-12.6,0Zm.06-1.7H27.44c1.73,0,2-.23,2-1.93q0-6.36,0-12.73c0-2.43,0-2.43-2.51-2.43h-1c-3,0-2.47.37-3.41-2.39A1.69,1.69,0,0,0,20.6,1.69c-2.92.05-5.84,0-8.76,0-3.31,0-2.58-.39-3.64,2.57A1.48,1.48,0,0,1,6.52,5.43c-1-.06-2,0-3,0-1.52,0-1.8.3-1.8,1.84,0,4.49,0,9,0,13.46,0,1.53.27,1.8,1.83,1.8Z"/><path class="cls-1" d="M6.83,12.82A8.73,8.73,0,0,1,24.29,13a8.73,8.73,0,1,1-17.46-.14Zm1.71,0a7,7,0,1,0,7.21-6.94A7,7,0,0,0,8.54,12.83Z"/><path class="cls-1" d="M9.72,12.87c.14-3.2,2.73-5.78,5.51-5.76.38,0,.75.48,1.13.74-.32.31-.62.88-1,.9a4.34,4.34,0,0,0-4,4c0,.37-.63.71-1,1.06Z"/></g></g></svg>