<svg xmlns="http://www.w3.org/2000/svg" viewBox="0 0 32.78 32.75"><defs><style>.cls-1{fill:#fff;}</style></defs><title>Settings</title><g id="Layer_2" data-name="Layer 2"><g id="Layer_1-2" data-name="Layer 1"><path class="cls-1" d="M7.25,2.62A14.24,14.24,0,0,1,9.32,4.15c1,1.06,1.85.34,2.65-.11a2,2,0,0,0,.77-1.38c.44-3.18.2-2.6,3-2.65h1.56C19.76,0,19.75,0,20,2.44c.07.62-.2,1.38.77,1.67s1.7.9,2.79,0c2-1.71,2.11-1.61,4,.31.64.66,1.3,1.31,2,1.94A1.06,1.06,0,0,1,29.63,8a5.61,5.61,0,0,1-.67.84c-1.31,1-.8,2.18-.18,3.27a1.74,1.74,0,0,0,1.16.59c3.46.45,2.75.2,2.82,3.22,0,.92,0,1.84,0,2.76,0,.68-.27,1-1,1.09a11.85,11.85,0,0,1-1.54.21c-1-.07-1.45.41-1.82,1.31a2,2,0,0,0,.32,2.35c1.58,2,1.94,1.66-.28,3.8-.63.61-1.25,1.24-1.85,1.89s-1.29.88-2,.14a6.67,6.67,0,0,0-.67-.52c-1.39-1.09-1.88-1.15-3.36-.17a1.72,1.72,0,0,0-.5,1.1c-.52,3.38.07,2.8-3.15,2.85-.92,0-1.85,0-2.77,0-.73,0-1.12-.29-1.16-1.05a9.87,9.87,0,0,0-.16-1.07c-.24-1.83-.46-2.12-2.22-2.52a1.66,1.66,0,0,0-1.12.42c-2.78,2-2,2-4.36-.3-.52-.5-1-1.07-1.54-1.52-.9-.73-1-1.45-.18-2.3A5.41,5.41,0,0,0,4,23.66a2.5,2.5,0,0,0-.07-3.28A2.3,2.3,0,0,0,2.72,20C-.4,19.55.07,20,0,17.07a20,20,0,0,1,0-3A1.74,1.74,0,0,1,1,13a4,4,0,0,1,1.65-.26c.88,0,1.24-.41,1.67-1.17.67-1.18.16-1.88-.52-2.73C2.49,7.17,2.52,7.15,4,5.67c.76-.77,1.51-1.54,2.29-2.29A9.59,9.59,0,0,1,7.25,2.62Zm21,22.78C27.18,24,26.05,23,27,20.68s2.71-1.86,4.28-2.35v-4c-1.63-.34-3.3,0-4.27-2.28s.33-3.35,1.19-4.61l-2.91-3c-1.43,2.14-3.23,2.07-5.31.9-.69-.39-1.14-.64-1.24-1.5-.28-2.43-.33-2.34-2.72-2.44-1.29-.06-1.76.33-1.8,1.62a2.25,2.25,0,0,1-1.29,2.36c-2.15,1.12-3.78,1-5.35-.79,0,0-.14,0-.06,0L4.61,7.48c1,1.3,2.18,2.33,1.24,4.6S3.18,14,1.52,14.43v1.36c0,2.55,0,2.58,2.49,2.89.75.1,1,.47,1.37,1.08,1.24,2.09,1.13,3.91-.73,5.55,0,0,0,.08,0-.06l2.72,3c1.41-1,2.4-2.23,4.7-1.3s1.9,2.74,2.37,4.3h3.88c.51-1.55,0-3.31,2.35-4.28s3.35.32,4.74,1.28Z"/><path class="cls-1" d="M16.44,23.16a6.67,6.67,0,0,1-6.83-6.8,6.66,6.66,0,0,1,6.74-6.77,6.69,6.69,0,0,1,6.84,6.8A6.66,6.66,0,0,1,16.44,23.16Zm5.29-6.67a5.34,5.34,0,1,0-5.44,5.22A5.33,5.33,0,0,0,21.73,16.49Z"/></g></g></svg>