<svg xmlns="http://www.w3.org/2000/svg" viewBox="0 0 31.24 23.68"><defs><style>.cls-1{fill:#fff;}</style></defs><title>Status</title><g id="Layer_2" data-name="Layer 2"><g id="Layer_1-2" data-name="Layer 1"><path class="cls-1" d="M18.18,8.93a25.67,25.67,0,0,1,8.06-1.45l.07.41-8,1.42Z"/><path class="cls-1" d="M18.19,16.59a29.67,29.67,0,0,1,8-1.44l.08.45-8,1.41Z"/><path class="cls-1" d="M26.34,10.47l-8.08,1.39-.07-.42a25.33,25.33,0,0,1,8.1-1.33Z"/><path class="cls-1" d="M26.38,5.35,18.11,6.74C19.32,5.53,25.2,4.6,26.38,5.35Z"/><path class="cls-1" d="M26.52,13l-8.39,1.43C19.17,13.32,24.89,12.34,26.52,13Z"/><path class="cls-1" d="M4.88,15.61C6.62,15,12,16,13.3,17.05Z"/><path class="cls-1" d="M1.7,2.3c.07-.12.11-.15.11-.19C2.05,0,2.05,0,4.2,0a29.27,29.27,0,0,1,11,2.05,1.78,1.78,0,0,0,1.2-.15A30.9,30.9,0,0,1,29,.05c.07,0,.13.07.27.15l.14,2c1.8.37,1.8.37,1.8,2.18,0,6,0,11.93,0,17.89,0,1.05-.31,1.37-1.36,1.37q-14.28,0-28.57,0C.19,23.69,0,23.24,0,22.26c0-6,0-12,0-18C0,2.55,0,2.55,1.7,2.3ZM28.46,1c-4.09.05-8,.31-11.67,1.82-.75.31-.7.86-.7,1.47q0,8.52,0,17c0,.31,0,.61.07,1,.32-.07.54-.13.77-.17,2.94-.48,5.88-1.12,8.84-1.4,2.67-.26,2.68-.08,2.68-2.77ZM2.87,20.3,15.12,22c0-6,0-12.12,0-18.27a1.24,1.24,0,0,0-.72-.89A24.25,24.25,0,0,0,10.24,1.6C7.82,1.23,5.37,1.06,2.87.81Zm27.36,2.41V4.92a2.47,2.47,0,0,0,0-.72,4.4,4.4,0,0,0-.44-.79,4.29,4.29,0,0,0-.4.84,3.36,3.36,0,0,0,0,.84c0,5.08,0,10.15,0,15.23,0,.94-.28,1.23-1.23,1.22a42.64,42.64,0,0,0-4.66.23c-1.5.15-3,.45-4.48.68l0,.26Zm-18.11,0,.05-.48c-3-.25-6.09-.54-9.13-.71-1-.05-1.2-.37-1.2-1.27,0-5.12,0-10.24,0-15.36a3.75,3.75,0,0,0,0-.95c-.05-.22-.29-.38-.44-.57A7.4,7.4,0,0,0,1,4a.86.86,0,0,0,0,.36q0,8.76,0,17.51a4.54,4.54,0,0,0,.14.86Z"/><path class="cls-1" d="M5,7.52a27.63,27.63,0,0,1,8.13,1.34L13,9.3,4.89,7.91Z"/><path class="cls-1" d="M13,6.74,4.92,5.36C5.79,4.59,11.64,5.44,13,6.74Z"/><path class="cls-1" d="M5,10.13a24.27,24.27,0,0,1,8.15,1.34l-.06.41L4.92,10.47Z"/><path class="cls-1" d="M5,12.73A24.37,24.37,0,0,1,13.09,14l-.06.42L4.94,13.07Z"/></g></g></svg>