<svg xmlns="http://www.w3.org/2000/svg" viewBox="0 0 107.91 107.95"><defs><style>.cls-1{fill:#fff;}</style></defs><title>Users</title><g id="Layer_2" data-name="Layer 2"><g id="Layer_1-2" data-name="Layer 1"><path class="cls-1" d="M107.91,54.19A54,54,0,1,1,54.05,0,54,54,0,0,1,107.91,54.19ZM89.36,84.29C106.24,69.41,104.72,37,86.61,19.83a47.07,47.07,0,0,0-69.54,4.71C2.87,42.18,3.66,74,18.68,84c2-9.52,6.53-17.42,14.51-23.18,2.08-1.49,3.61-1.9,6.11-.32,9.6,6.1,19.56,6.17,29.17.07,2.74-1.74,4.32-1.17,6.53.44C82.91,66.8,87.25,74.79,89.36,84.29Z"/><path class="cls-1" d="M53.72,57.22A19,19,0,0,1,34.6,37.7,19,19,0,0,1,54,18.4c11.11,0,19.5,8.56,19.36,19.78A19,19,0,0,1,53.72,57.22Z"/></g></g></svg>